<?xml version="1.0" standalone="no"?>
<!DOCTYPE svg PUBLIC "-//W3C//DTD SVG 20010904//EN"
 "http://www.w3.org/TR/2001/REC-SVG-20010904/DTD/svg10.dtd">
<svg version="1.0" xmlns="http://www.w3.org/2000/svg"
 width="500.000000pt" height="500.000000pt" viewBox="0 0 500.000000 500.000000"
 preserveAspectRatio="xMidYMid meet">

<g transform="translate(0.000000,500.000000) scale(0.100000,-0.100000)"
fill="#000000" stroke="none">
<path d="M1337 3366 c-53 -15 -131 -65 -163 -105 -12 -14 -57 -89 -100 -166
-72 -129 -79 -145 -82 -205 -3 -52 1 -76 17 -111 30 -63 58 -86 190 -160 137
-76 193 -86 279 -49 66 28 93 60 169 196 97 171 107 198 107 284 0 130 -64
234 -179 291 -75 37 -164 46 -238 25z m180 -172 c61 -35 96 -100 96 -174 0
-53 -5 -68 -60 -162 -52 -90 -65 -106 -105 -126 -57 -29 -91 -22 -198 40 -61
35 -76 50 -93 87 -12 27 -17 56 -14 76 8 48 105 212 145 245 66 54 151 59 229
14z"/>
<path d="M2728 3370 c-92 -16 -184 -90 -229 -185 -25 -51 -29 -72 -29 -140 0
-94 7 -109 110 -280 87 -145 101 -161 165 -191 56 -27 120 -30 176 -10 48 17
228 129 256 158 57 61 79 172 48 246 -35 81 -167 282 -216 326 -73 65 -179 94
-281 76z m167 -165 c45 -19 69 -46 131 -150 54 -90 56 -98 52 -147 -5 -46 -11
-57 -45 -88 -52 -46 -158 -100 -195 -100 -64 0 -103 36 -173 157 -69 120 -71
198 -8 274 60 70 150 91 238 54z"/>
<path d="M2005 3206 c-27 -13 -62 -36 -76 -52 -23 -25 -501 -851 -569 -984
-63 -121 -3 -283 125 -341 37 -17 80 -19 623 -19 630 0 614 -1 687 54 17 13
44 48 60 77 39 73 41 161 4 234 -61 120 -544 953 -568 979 -40 44 -116 76
-181 76 -37 0 -71 -8 -105 -24z m37 -243 c17 -15 18 -45 18 -538 0 -576 3
-549 -63 -547 -17 0 -37 8 -44 18 -10 14 -13 130 -13 531 0 500 1 514 20 533
24 24 57 26 82 3z m210 0 c17 -15 18 -45 18 -538 0 -569 2 -547 -56 -547 -60
0 -59 -15 -62 530 -1 273 0 507 3 519 12 50 61 68 97 36z m-687 -728 c24 -23
25 -29 25 -168 0 -123 -3 -148 -18 -166 -22 -28 -75 -31 -102 -6 -18 17 -20
31 -20 168 0 141 1 152 22 174 28 30 63 29 93 -2z m1176 6 c23 -18 24 -27 28
-147 4 -152 -7 -200 -47 -211 -34 -9 -52 -5 -74 14 -16 14 -18 36 -18 170 0
140 2 155 20 173 25 25 61 26 91 1z"/>
<path d="M1890 1759 c0 -24 4 -30 17 -27 22 4 30 38 11 49 -22 15 -28 10 -28
-22z m30 -5 c0 -8 -4 -14 -10 -14 -5 0 -10 9 -10 21 0 11 5 17 10 14 6 -3 10
-13 10 -21z"/>
<path d="M1950 1765 c-6 -14 -10 -27 -10 -28 0 -1 30 -2 67 -2 44 0 68 4 70
13 3 6 -1 12 -7 12 -7 0 -10 7 -6 15 3 8 1 15 -4 15 -14 0 -12 -24 2 -38 9 -9
8 -12 -5 -12 -10 0 -22 12 -27 26 -10 26 -30 25 -30 -2 0 -8 -4 -14 -10 -14
-5 0 -10 6 -10 14 0 27 -20 27 -30 1z"/>
<path d="M2100 1783 c1 -4 7 -19 15 -33 l13 -25 11 28 c15 39 13 47 -4 17 -10
-18 -14 -20 -15 -8 0 9 -4 20 -10 23 -5 3 -10 3 -10 -2z"/>
<path d="M2163 1764 c-9 -27 -8 -29 13 -29 27 0 30 13 11 40 -13 17 -15 16
-24 -11z"/>
<path d="M2210 1759 c0 -24 4 -30 17 -27 22 4 30 38 11 49 -22 15 -28 10 -28
-22z m30 -5 c0 -8 -4 -14 -10 -14 -5 0 -10 9 -10 21 0 11 5 17 10 14 6 -3 10
-13 10 -21z"/>
<path d="M2267 1783 c-4 -3 -7 -17 -7 -30 0 -16 6 -23 18 -22 9 0 12 3 5 5 -8
4 -9 13 -3 30 9 23 2 32 -13 17z"/>
<path d="M2310 1758 c0 -25 3 -29 10 -18 6 10 10 11 10 3 0 -7 4 -13 9 -13 13
0 -3 53 -17 58 -8 2 -12 -8 -12 -30z"/>
</g>
</svg>
